<svg xmlns="http://www.w3.org/2000/svg"
     width="1280.000000pt" height="952.000000pt" viewBox="0 0 1280.000000 952.000000">
    <g transform="translate(0.000000,952.000000) scale(0.100000,-0.100000)"
       fill="#000000" stroke="none">
        <path d="M6110 9509 c-773 -66 -1528 -396 -2204 -964 -66 -55 -132 -110 -147
-123 l-28 -22 -258 171 c-319 212 -482 309 -685 410 -284 141 -500 195 -732
186 -265 -10 -467 -105 -690 -325 -105 -104 -228 -264 -267 -347 -45 -99 -68
-233 -99 -590 -11 -126 -25 -250 -30 -275 -5 -25 -9 -48 -10 -52 -1 -19 -68
-82 -111 -103 -26 -14 -105 -41 -176 -60 -70 -20 -148 -48 -173 -62 -165 -95
-377 -438 -455 -736 -51 -196 -57 -424 -14 -562 47 -152 122 -264 304 -453 97
-101 147 -144 211 -183 152 -92 152 -105 -7 -261 -111 -109 -124 -126 -164
-211 -59 -128 -111 -279 -136 -401 -28 -135 -23 -361 10 -475 60 -204 206
-428 402 -616 120 -115 141 -129 293 -194 75 -32 152 -71 172 -86 34 -26 36
-30 32 -75 -6 -55 -74 -200 -207 -440 -147 -266 -181 -400 -188 -757 -10 -441
66 -802 231 -1096 80 -145 176 -234 344 -320 354 -183 784 -202 1187 -52 154
57 202 87 327 203 116 107 183 152 230 152 37 0 72 -32 149 -136 38 -52 86
-104 106 -117 73 -45 649 -336 773 -390 69 -30 168 -69 220 -88 l95 -34 190 0
c112 0 221 5 265 13 389 68 746 181 1025 325 128 66 151 86 355 304 72 78 108
108 151 127 100 46 132 25 471 -314 347 -348 456 -433 593 -460 88 -17 333
-23 465 -11 290 27 512 99 668 216 79 59 101 93 193 289 91 197 137 271 183
293 33 15 36 15 88 -10 29 -14 105 -70 169 -124 65 -54 152 -118 195 -142 44
-24 171 -105 284 -181 285 -190 332 -210 564 -247 152 -24 623 -25 736 -1 176
38 314 121 486 292 253 254 411 585 470 986 22 156 15 441 -15 583 -28 130
-80 272 -133 364 -43 76 -206 297 -396 538 -56 71 -102 137 -102 147 0 41 120
77 259 78 129 0 407 79 541 153 144 79 248 175 297 272 44 86 113 277 130 360
48 237 -55 595 -265 915 -61 94 -79 113 -164 177 -197 148 -284 250 -263 310
20 55 134 108 403 185 186 53 234 72 292 119 203 164 306 629 217 979 -75 289
-223 548 -428 744 -367 353 -943 549 -2007 686 -152 19 -167 20 -279 5 -153
-20 -442 -45 -515 -45 -53 0 -58 2 -58 23 0 12 30 84 67 160 l66 139 0 131 c0
194 -39 336 -117 432 -66 80 -273 199 -471 270 -372 135 -776 160 -1046 67
-78 -27 -98 -38 -329 -182 -236 -146 -260 -160 -293 -160 -44 0 -59 21 -61 87
-4 109 -89 249 -228 378 -148 137 -268 194 -450 214 -110 12 -366 12 -508 0z"/>
    </g>
</svg>
